<?xml version="1.0" encoding="UTF-8"?> <svg xmlns="http://www.w3.org/2000/svg" viewBox="0 0 1270.48 469.69"><defs><style>.cls-1{fill:#8cbf44;}.cls-2{fill:#f8af3c;}.cls-3{fill:#2baae2;}.cls-4{fill:#e42528;}</style></defs><g id="Calque_2" data-name="Calque 2"><g id="Calque_2-2" data-name="Calque 2"><path d="M319.58,322.34H295.27V297.39c-14.07,18.55-36.47,29.11-62.7,29.11-41.91,0-78.7-32.95-78.7-82.86s36.79-82.85,78.7-82.85c26.23,0,48.63,10.55,62.7,29.11V164.62h24.31Zm-24.31-78.7c0-37.75-29.11-61.42-58.86-61.42-32.63,0-58.86,23.67-58.86,61.42,0,37.43,26.23,61.1,58.86,61.1C266.16,304.74,295.27,281.07,295.27,243.64Z"></path><path d="M515.36,322.34H490.73V185.1H406V322.34H381.64V185.1H354.13V164.62h27.51V141.27c0-33.27,21.12-54.7,54.39-54.7a57,57,0,0,1,29.43,7.67l-6.4,19.84a45.38,45.38,0,0,0-21.43-5.44c-19.52,0-31.67,12.48-31.67,32.63v23.35h109.4ZM486.25,117a16.46,16.46,0,0,1,16.64-16.32c9.59,0,17,7.68,17,16.32,0,9.28-7.36,16.31-17,16.31S486.25,126.24,486.25,117Z"></path><path d="M720.74,309.54c-.32,46.07-31.67,73.58-79.34,73.58-39,0-64.94-15.35-77.1-40.95l20.48-14.07C596,349.21,612,361.05,641.4,361.05c33.27,0,55.35-21.12,55.35-54.71V287.15c-12.8,16.63-33,25.91-59.19,25.91-41.58,0-77.73-31.67-77.73-76.46,0-44.46,36.15-75.81,77.73-75.81,26.24,0,46.39,9.27,59.19,25.59V164.62h23.67Zm-24-72.94c0-33.59-26.24-54.7-55.67-54.7-32,0-57.58,21.11-57.58,54.7S609.09,292,641.08,292C670.51,292,696.75,270.19,696.75,236.6Z"></path><path d="M921.32,248.44H786c2.24,35.51,29.11,56.62,56.3,56.62,22.39,0,42.55-8.63,53.74-33.91l21.76,5.12c-12.48,33-40,50.23-75.5,50.23-41.91,0-80-32.31-80-82.54,0-50.54,38.07-83.17,81.58-83.17,42.55,0,75.82,31.67,77.42,78.69ZM787,230.2H896.68c-4.47-31-26.55-48-52.78-48C818.31,182.22,791.75,199.17,787,230.2Zm48-89.25,25.59-44.79H889L856.38,141Z"></path><path d="M1116.14,243.32c0,48.31-37.11,82.86-83.5,82.86-47,0-83.82-34.55-83.82-82.86s36.79-82.21,83.82-82.21C1079,161.11,1116.14,195,1116.14,243.32Zm-24,0c0-36.15-27.19-60.78-59.5-60.78-32.63,0-60.14,24.63-60.14,60.78,0,36.47,27.51,61.42,60.14,61.42C1065,304.74,1092.14,279.79,1092.14,243.32Z"></path><path class="cls-1" d="M969.3,463.58l60.08-82a3.85,3.85,0,0,1,6.2,0l60.08,82a3.84,3.84,0,0,1-3.09,6.11H972.39A3.84,3.84,0,0,1,969.3,463.58Z"></path><path class="cls-2" d="M1095.66,6.11l-60.08,82a3.85,3.85,0,0,1-6.2,0l-60.08-82A3.84,3.84,0,0,1,972.39,0h120.18A3.84,3.84,0,0,1,1095.66,6.11Z"></path><path class="cls-3" d="M1264.37,298l-82-60.09a3.83,3.83,0,0,1,0-6.19l82-60.09a3.84,3.84,0,0,1,6.11,3.1V294.93A3.84,3.84,0,0,1,1264.37,298Z"></path><path class="cls-4" d="M6.11,171.66l82,60.09a3.84,3.84,0,0,1,0,6.19L6.11,298A3.84,3.84,0,0,1,0,294.93V174.76A3.84,3.84,0,0,1,6.11,171.66Z"></path></g></g></svg> 